<svg xmlns="http://www.w3.org/2000/svg" style="display:none;">
  <!-- Facebook -->
  <symbol id="icon-facebook" viewBox="0 0 24 24">
    <path d="M22.675 0h-21.35C.597 0 
             0 .597 0 1.326v21.348C0 23.403.597 
             24 1.326 24h11.495v-9.294H9.691V11.01h3.13V8.41c0-3.1 
             1.893-4.788 4.659-4.788 1.325 0 
             2.464.099 2.797.143v3.24l-1.918.001c-1.505 
             0-1.797.715-1.797 1.764v2.312h3.587l-.467 
             3.696h-3.12V24h6.116C23.403 
             24 24 23.403 24 22.674V1.326C24 
             .597 23.403 0 22.675 0z"/>
  </symbol>

  <!-- Google Plus -->
  <symbol id="icon-google" viewBox="0 0 24 24">
    <path d="M12 12.713c-.706-.471-1.336-1.066-1.336-1.89 
             0-.814.53-1.299 1.186-1.852 1.06-.832 
             2.11-1.72 2.11-3.607 
             0-1.935-1.236-2.947-1.87-3.419h1.635l1.147-.693H9.928c-2.19 
             0-5.29 1.016-5.29 4.342 
             0 2.411 1.756 4.05 4.873 
             4.05h.805c-.112.24-.241.47-.241.833 
             0 .664.354 1.07.783 1.454h-1.09c-3.512 
             0-6.197 2.248-6.197 4.59 
             0 2.292 2.96 3.727 6.472 
             3.727 3.994 0 6.197-2.278 6.197-4.57 
             0-1.838-.54-2.934-2.257-4.092zM20 8V5h-2v3h-3v2h3v3h2v-3h3V8z"/>
  </symbol>

  <!-- LinkedIn -->
  <symbol id="icon-linkedin" viewBox="0 0 24 24">
    <path d="M20.447 20.452H17.2v-5.569c0-1.327-.027-3.036-1.849-3.036-1.851 
             0-2.135 1.445-2.135 2.939v5.666H9.01V9h3.112v1.561h.045c.434-.82 
             1.494-1.683 3.073-1.683 
             3.287 0 3.895 2.164 3.895 
             4.977v6.597zM5.337 
             7.433c-1.004 0-1.818-.814-1.818-1.818 
             0-1.003.814-1.818 
             1.818-1.818 1.004 0 
             1.818.815 
             1.818 1.818 0 1.004-.814 
             1.818-1.818 
             1.818zM6.894 
             20.452H3.779V9h3.115v11.452zM22.225 
             0H1.771C.792 0 0 .774 
             0 1.729v20.542C0 23.227.792 
             24 1.771 24h20.451C23.2 
             24 24 23.227 24 22.271V1.729C24 
             .774 23.2 0 22.225 0z"/>
  </symbol>
</svg>
