<svg xmlns="http://www.w3.org/2000/svg" style="display:none;">
  <!-- Facebook -->
  <symbol id="icon-facebook" viewBox="0 0 640 640">
    <path d="M240 363.3L240 576L356 576L356 363.3L442.5 363.3L460.5 
    265.5L356 265.5L356 230.9C356 179.2 376.3 159.4 428.7 159.4C445 
    159.4 458.1 159.8 465.7 160.6L465.7 71.9C451.4 68 416.4 64 396.2 
    64C289.3 64 240 114.5 240 223.4L240 265.5L174 265.5L174 363.3L240 
    363.3z"/>
  </symbol>

  <!-- Google -->
  <symbol id="icon-google"  viewBox="0 0 640 640">
            <path d="M564 325.8C564 467.3 467.1 568 324 568C186.8 568 76 457.2 76 320C76 
            182.8 186.8 72 324 72C390.8 72 447 96.5 490.3 136.9L422.8 201.8C334.5 116.6 
            170.3 180.6 170.3 320C170.3 406.5 239.4 476.6 324 476.6C422.2 476.6 459 406.2 
            464.8 369.7L324 369.7L324 284.4L560.1 284.4C562.4 297.1 564 309.3 564 325.8z"/>
  </symbol>

  <!-- LinkedIn -->
  <symbol id="icon-linkedin"  viewBox="0 0 640 640">
    <path d="M196.3 512L103.4 512L103.4 212.9L196.3 212.9L196.3 512zM149.8 
          172.1C120.1 172.1 96 147.5 96 117.8C96 103.5 101.7 89.9 111.8 79.8C121.9 
          69.7 135.6 64 149.8 64C164 64 177.7 69.7 187.8 79.8C197.9 89.9 203.6 103.6 
          203.6 117.8C203.6 147.5 179.5 172.1 149.8 172.1zM543.9 512L451.2 512L451.2 
          366.4C451.2 331.7 450.5 287.2 402.9 287.2C354.6 287.2 347.2 324.9 347.2 
          363.9L347.2 512L254.4 512L254.4 212.9L343.5 212.9L343.5 253.7L344.8 
          253.7C357.2 230.2 387.5 205.4 432.7 205.4C526.7 205.4 544 267.3 544 
          347.7L544 512L543.9 512z"/>
  </symbol>


</svg>
