<svg width="50" height="50" viewBox="0 0 50 50" fill="none" xmlns="http://www.w3.org/2000/svg">
<rect width="50" height="50" fill="#F5F5F5"/>
<g clip-path="url(#clip0_2_2)">
<rect width="1920" height="6814" transform="translate(-1630 -4756)" fill="white"/>
<path d="M70.75 314.5C70.75 487.488 -71.2727 627.75 -246.5 627.75C-421.727 627.75 -563.75 487.488 -563.75 314.5C-563.75 141.512 -421.727 1.25 -246.5 1.25C-71.2727 1.25 70.75 141.512 70.75 314.5Z" fill="white" stroke="#EFECEB" stroke-width="2.5"/>
<circle cx="25" cy="25" r="25" fill="#EBD96B"/>
<g filter="url(#filter0_d_2_2)">
<g clip-path="url(#clip1_2_2)">
<rect x="-409.097" y="-40" width="327.894" height="710" rx="34.9754" fill="white"/>
</g>
<rect x="-420.387" y="-51.29" width="350.474" height="732.58" rx="46.2654" stroke="#C2C8DA" stroke-width="22.58"/>
</g>
</g>
<defs>
<filter id="filter0_d_2_2" x="-494.677" y="-121.58" width="499.054" height="881.16" filterUnits="userSpaceOnUse" color-interpolation-filters="sRGB">
<feFlood flood-opacity="0" result="BackgroundImageFix"/>
<feColorMatrix in="SourceAlpha" type="matrix" values="0 0 0 0 0 0 0 0 0 0 0 0 0 0 0 0 0 0 127 0" result="hardAlpha"/>
<feOffset dy="4"/>
<feGaussianBlur stdDeviation="31.5"/>
<feComposite in2="hardAlpha" operator="out"/>
<feColorMatrix type="matrix" values="0 0 0 0 0 0 0 0 0 0 0 0 0 0 0 0 0 0 0.25 0"/>
<feBlend mode="normal" in2="BackgroundImageFix" result="effect1_dropShadow_2_2"/>
<feBlend mode="normal" in="SourceGraphic" in2="effect1_dropShadow_2_2" result="shape"/>
</filter>
<clipPath id="clip0_2_2">
<rect width="1920" height="6814" fill="white" transform="translate(-1630 -4756)"/>
</clipPath>
<clipPath id="clip1_2_2">
<rect x="-409.097" y="-40" width="327.894" height="710" rx="34.9754" fill="white"/>
</clipPath>
</defs>
</svg>
